<svg xmlns="http://www.w3.org/2000/svg" width="1024" height="1024" viewBox="0 0 1024 1024">
  <defs>
    <linearGradient id="glass" x1="184" y1="96" x2="864" y2="928" gradientUnits="userSpaceOnUse">
      <stop offset="0" stop-color="#ffffff"/>
      <stop offset="0.46" stop-color="#eaf6ff"/>
      <stop offset="1" stop-color="#cfe9fb"/>
    </linearGradient>
    <linearGradient id="accent" x1="292" y1="252" x2="750" y2="788" gradientUnits="userSpaceOnUse">
      <stop offset="0" stop-color="#3f82f7"/>
      <stop offset="0.52" stop-color="#5bc2f0"/>
      <stop offset="1" stop-color="#8fcf9b"/>
    </linearGradient>
    <linearGradient id="ink" x1="362" y1="312" x2="696" y2="760" gradientUnits="userSpaceOnUse">
      <stop offset="0" stop-color="#14243a"/>
      <stop offset="1" stop-color="#0b1728"/>
    </linearGradient>
    <filter id="lift" x="-20%" y="-20%" width="140%" height="140%">
      <feDropShadow dx="0" dy="28" stdDeviation="38" flood-color="#486b88" flood-opacity="0.22"/>
    </filter>
  </defs>

  <rect width="1024" height="1024" rx="248" fill="url(#glass)"/>
  <rect x="50" y="50" width="924" height="924" rx="214" fill="#ffffff" fill-opacity="0.2"/>
  <rect x="68" y="68" width="888" height="888" rx="202" fill="none" stroke="#ffffff" stroke-opacity="0.86" stroke-width="20"/>
  <rect x="90" y="90" width="844" height="844" rx="184" fill="none" stroke="#4f789e" stroke-opacity="0.2" stroke-width="10"/>

  <g filter="url(#lift)">
    <circle cx="512" cy="512" r="332" fill="#ffffff" fill-opacity="0.5"/>
    <path d="M704 268c-58-48-132-76-214-76-177 0-320 141-320 315s143 315 320 315c84 0 160-29 218-78" fill="none" stroke="url(#accent)" stroke-width="82" stroke-linecap="round"/>
    <text x="522" y="610" text-anchor="middle" fill="url(#ink)" font-family="Inter, Arial, Helvetica, sans-serif" font-size="278" font-weight="850" letter-spacing="-14">CM</text>
    <circle cx="744" cy="286" r="31" fill="#3f82f7"/>
    <circle cx="734" cy="748" r="31" fill="#8fcf9b"/>
  </g>
</svg>
